<?xml version="1.0" encoding="UTF-8"?>
<svg id="Color" xmlns="http://www.w3.org/2000/svg" viewBox="0 0 2626 1829">
  <defs>
    <style>
      .cls-1 {
        fill: #000141;
      }

      .cls-2 {
        fill: #fdfae3;
      }

      .cls-3 {
        fill: #ef4316;
      }

      .cls-4 {
        fill: #00b0af;
      }
    </style>
  </defs>
  <g>
    <path class="cls-3" d="M735.24,656.79c76.26-86.63-41.54-151.15,78.11-278.01-.01,0,42.66-43.34,19.32-119.34,0,0,58.67,11.33,62,105.33,62.38-59.85-48.61-229.15,85.35-314.66-38.84,147.17,160.38,203.19,123.09,386.88,0,0,37.79-16.89,51.12-90.22,138.73,202.81-141.85,441.8-315.67,403.33,0,0,254.22-21.33,246.89-192.89,0,0-22.36,16.58-34.22,7.11-19.93-15.91,11.89-161.11-58.78-206.44-.42,9.31-104.56,227.33-112.44,80.67,4.12,76.57-52.79,123.58-144.77,218.23Z"/>
    <path class="cls-4" d="M844.11,750.11s241.78-5.33,241.33-192.89c0,0-27.56,12.89-34.22,7.11-6.67-5.78,11.56-172.44-58.22-206.67-4.12,4.86-102.55,229.28-113,80.89-88.92,60.14-79.56,164.45-144.77,218.23-.02-.01,86.65,6.65,127.09-112.01,0,0,10.22,11.11,13.78,37.78,0,0,51.11,1.33,102.22-90.67,0,0,21.78,49.78-14.22,144,81.72-52.02,39.92,72.42-120,114.22Z"/>
    <path class="cls-4" d="M327,1031.28s103.33-176,245.33-212,279.33-110.67,315.33-179.33c0,0-2.12,29.05-295.33,80-289.33,50.28-366.91,245.7-366.91,245.7l50.24,55.24,51.33,10.39Z"/>
    <path class="cls-1" d="M506.33,755.94s10.67,39,29,70c0,0-33.44,1.09-51.55-8.12,0,0,11.55-48.54,22.55-61.88Z"/>
    <path class="cls-1" d="M468.89,754.77s-44.95,73.32-40.51,92.91c0,0,38.22,5.4,66.09,6.08,0,0-25.32,17.18-33.2,23.54,0,0-45,.31-66.97-3.03,0,0,13.89-76.6,31.96-100.8,0,0,31.86-15.72,42.63-18.71Z"/>
    <path class="cls-1" d="M370.24,804.97s-25.73,63.66-28.32,117.49l74.02-4.4s-23.63,23.32-31.29,34.19c0,0-40.55-8.52-73.43,6.51,0,0-2.73-98.55,9.86-117.84,0,0,35-27.14,49.16-35.94Z"/>
    <path class="cls-1" d="M275.58,889.19s-16.35,65.92,4.76,127.26c0,0,27.37,3.17,67.74-17.08,0,0-148.07,228.42,69.7,365.75l51.11,74.67-24.5,115.33s-536.94-196-168.81-665.92Z"/>
    <path class="cls-2" d="M213.56,1025.78l23.56-39.11s3.56,41.33,43.11,92.89l-16,51.11s-50.67-58.22-50.67-104.89Z"/>
    <path class="cls-4" d="M185.89,1172l4.44-68.44,66.16,74.39c10.28,11.56,16.77,25.99,18.6,41.35l.92,7.74c1.22,10.24-.3,20.62-4.42,30.07l-41.49,95.34-28.67-64.44,37.78-65.33-53.33-50.67Z"/>
    <path class="cls-2" d="M263.22,1408.89s6.22-80.89,32.89-120.44c0,0,20,30.22,27.11,44,0,0-18.67,37.33-24.44,108.44,0,0-10.67,0-35.56-32Z"/>
    <path class="cls-4" d="M343.22,1467.56s-2.67-75.11,7.56-102.89l33.33,17.56s-11.11,71.56,0,112.44l-40.89-27.11Z"/>
  </g>
  <g>
    <path class="cls-1" d="M401.57,1536.08c-19.52-28.94,9.89-142.17,17.34-169.31,1.04-3.77,1.65-5.88,1.65-5.88,0,0,24.33-117.67,93.66-189.67l-53.78,3.11s73.78-93.33,188.89-137.33c0,0-7.11-13.33-47.11-22.22,0,0,52-36,239.11-30.67,0,0-4.89-28.89-29.33-44.44,0,0,133.78,12.89,221.33,67.11,0,0,22.67,75.11,91.56,99.55,0,0-59.11,122.23-14.22,230.67s154.66,155.56,154.66,155.56l-14.66,26.22s-8,77.33,30.22,157.33c0,0,71.11-17.33,80.44,50.22h-99.55s-20-79.55-88.89-86.66c0,0-39.11-69.34-32.89-104l-35.11,8.44s1.78,76,39.11,126.22c0,0,65.78-.89,80,59.11h-142.22s-69.6-104.19-113.26-150.04c-1.69-1.78-3.35-3.48-4.96-5.07,0,0-7.25,4.94-26.04,9.82h-.02c-13.09,3.4-31.77,6.77-57.5,8.41,0,0-24.44,31.55-77.78,67.11,0,0-5.78,4.89,1.78,10.22s78.67-14.22,84.44,59.55h-355.55s-21.33-2.66-20-25.33,19.11-41.78,19.11-41.78c0,0,2.79-6.72,1.94-14.75-.19-1.74-.55-3.53-1.14-5.34-1.8-5.46-5.76-10.97-13.69-15.02-8.32-4.24-18.01-11.53-26.95-19.07-13.6-11.46-25.06-25.16-34.6-40.17-2.88-4.54-7.03-9.55-12.95-13.92-.17-.13-.35-.26-.52-.38-.02-.02-.04-.03-.06-.04-.31-.23-.63-.45-.95-.67-1.05-.73-2.17-1.44-3.34-2.11-6.14-3.57-13.8-6.39-23.32-7.65l-14.85-7.13Z"/>
    <path class="cls-4" d="M788.79,1591.86l27.29-28.71c26.69-34.21,42.59-77.24,42.59-123.99,0-7.95-.46-15.78-1.36-23.49,17.46-3.26,56.06-10.04,99.58-14.94v.27l-20.45,100.44s-8.88,20.45,0,37.34c3.38,6.43,14.96,20.3,27.12,35.55-2.22,1.31-10.57,5.8-26.04,9.82h-.02c-13.09,3.4-31.77,6.77-57.5,8.41"/>
    <path class="cls-4" d="M1036.44,1460.33l36,55.34-17.02,48.44c-6.97,1.97-14.11,3.89-21.41,5.75l-33.57-53.53,36-56Z"/>
    <path class="cls-4" d="M1075.73,1396.08c24.38,31.1,14.05,87.59,14.05,87.59l-50-72.67-67.34,75.33s-3.95-56.89,18.65-88.91c29.4-2.34,59.12-3.29,84.63-1.34h.01Z"/>
    <path class="cls-4" d="M1228.11,1487.61s-28.62,24.38-89.17,48.32l-34.05,8.18c1.76-28.22,12.17-66.73,35.55-115.11"/>
    <circle class="cls-2" cx="656.89" cy="1439.16" r="201.78"/>
    <circle class="cls-1" cx="623.11" cy="1463" r="200.67"/>
    <path class="cls-2" d="M751.11,1120.33l-78.67-52s80-55.33,203.33-52c0,0-63.33,100-50.67,264,0,0-30.67-53.33-148.67-80,0,0,8-34,74.67-80Z"/>
    <polygon class="cls-1" points="735.78 1067 820.44 1047 804.44 1107 735.78 1067"/>
    <polygon class="cls-1" points="730.79 1182.09 790.14 1138.99 793.38 1206.64 730.79 1182.09"/>
    <path class="cls-2" d="M1089.78,1483.67l-50-72.67-67.34,75.33s-3.95-56.89,18.65-88.91c9.57-13.57,23.92-22.68,45.35-21.09,18.42,1.37,30.9,9.06,39.28,19.75h.01c24.38,31.1,14.05,87.59,14.05,87.59Z"/>
    <polygon class="cls-4" points="516.44 1234.33 563.78 1209 584.44 1153 561.11 1160.33 516.44 1234.33"/>
    <polygon class="cls-4" points="601.78 1200.33 634.44 1200.33 692.44 1125 641.78 1095.67 607.11 1114.33 647.11 1141 601.78 1200.33"/>
    <path class="cls-4" d="M927.78,1019.67l84,28s-89.33,116.89-46.67,304.78l-85.11,12.22s-64.89-192.33,47.78-345Z"/>
    <path class="cls-4" d="M1089.78,1110.33l-78,6.67,56.67,60s-2-15.33,21.33-66.67Z"/>
    <path class="cls-4" d="M1065.78,1187l-76,30.67,76,36s-4.67-26.67,0-66.67Z"/>
    <path class="cls-4" d="M1065.78,1271l-60.67,48,77.33,16s-10.67-16.67-16.67-64Z"/>
    <path class="cls-4" d="M615.11,1395.67l-15.33-56.67s-2-33.33,27.33-32,27.33,32,27.33,32l-20.67,56.67s-10.67-6-18.67,0Z"/>
    <path class="cls-4" d="M663.59,1407.54l30.95-49.89s22.99-24.21,42.04-1.87c19.05,22.35-4.73,41.82-4.73,41.82l-55.52,23.58s-2.9-11.89-12.74-13.64Z"/>
    <path class="cls-4" d="M685.42,1449.44l55.38-19.47s33.09-4.45,33.93,24.9-29.9,29.62-29.9,29.62l-58.04-16.43s5.2-11.08-1.38-18.62Z"/>
    <path class="cls-4" d="M635.11,1518.54l15.33,56.67s2,33.33-27.33,32c-29.33-1.33-27.33-32-27.33-32l20.67-56.67s10.67,6,18.67,0Z"/>
    <path class="cls-4" d="M678,1493.16l51.98,27.28s25.8,21.2,4.88,41.8c-20.92,20.6-42.05-1.71-42.05-1.71l-27.51-53.68s11.65-3.74,12.69-13.69Z"/>
    <path class="cls-4" d="M560.8,1469.1l-56.67,15.33s-33.33,2-32-27.33c1.33-29.33,32-27.33,32-27.33l56.67,20.67s-6,10.67,0,18.67Z"/>
    <path class="cls-4" d="M572.24,1421.44l-53.31-24.59s-26.85-19.85-7.01-41.5c19.84-21.65,42.08-.44,42.08-.44l30.21,52.21s-11.45,4.33-11.97,14.32Z"/>
    <path class="cls-4" d="M582.24,1509.73l-24.35,53.42s-19.73,26.94-41.46,7.2c-21.74-19.74-.63-42.08-.63-42.08l52.07-30.45s4.39,11.43,14.37,11.91Z"/>
    <polygon class="cls-4" points="1036.44 1460.33 1000.44 1516.33 1046.44 1589.67 1072.44 1515.67 1036.44 1460.33"/>
    <circle class="cls-2" cx="623.11" cy="1457.1" r="43.33"/>
    <circle class="cls-2" cx="945.56" cy="1079.39" r="19.78"/>
    <circle class="cls-2" cx="919.33" cy="1151.39" r="19.78"/>
    <circle class="cls-2" cx="906" cy="1227.83" r="19.78"/>
    <circle class="cls-2" cx="914.5" cy="1309.61" r="19.78"/>
  </g>
  <g>
    <path class="cls-1" d="M1531.24,1073.09c-34.1-25.03-60.98-48.44-79.91-66.25-21.42-20.15-32.66-33.12-32.66-33.12,74.61-161.04,155.29-102.96,157.46-101.36.01.01.02.02.03.03h.01c4.92,4.73,8.82,10.56,11.31,17.19,43.81,116.9-56.24,183.51-56.24,183.51Z"/>
    <path class="cls-4" d="M1576.16,872.39c-63.4.46-102.55,131.76-102.55,131.76-8.64,1.72-16.01,2.55-22.28,2.69-41.04.97-35.33-27.25-35.33-27.25.89-1.99,1.78-3.94,2.67-5.87,74.61-161.04,155.29-102.96,157.46-101.36.01.01.02.02.03.03Z"/>
    <path class="cls-1" d="M1554,1604.39c-73.07,2.04-116.37-16.67-132.61-25.52-6.66-3.63-13.46-6.96-20.44-9.92-44.82-18.98-193.07-84.48-254.95-145.23-73.33-72-102.67-198-42.67-326.66l31.72,13.09c8.11,3.34,16.93,4.6,25.65,3.59,8.51-.99,19.73-3.23,31.56-8.2,26.19-11,55.3-35.39,64.2-89.19,2.64-15.9,3.5-34.37,2.01-55.82,0,0,85.52-15.91,160.21,13.31.04,0,.09.03.14.05,18.4,7.22,36.15,17.17,51.79,30.79,1.14.99,2.27,2.01,3.39,3.04,24.75,22.86,43.36,45.32,57.24,65.37,30.26,43.7,38.09,75.97,38.09,75.97,0,0,4.46,11.83,9.31,40.21,3.48,20.38,7.15,49.3,9.51,88.5.44,7.39.84,15.15,1.18,23.29,4.67,111.33,38,225.33,38,225.33,0,0,22,75.33-73.33,78Z"/>
    <path class="cls-2" d="M1270.55,996.78s121.35-22.59,191.1,41.84c69.75,64.43,84.53,125.31,84.53,125.31,0,0,13.6,36.06,17.73,134.77,4.14,98.71,33.69,199.79,33.69,199.79,0,0,19.51,66.79-65.02,69.16-64.27,1.8-102.57-14.52-117.23-22.44-6.65-3.59-13.47-6.85-20.43-9.81-41.93-17.84-170.1-74.93-224.09-127.94-65.02-63.84-94.36-171.22-41.16-285.31l45.67,6.89,95.22-132.27Z"/>
    <path class="cls-4" d="M1433.67,1019.06s49.33,140.89,25.33,235.56c0,0-133.33-204.89-198.22-260.44,0,0,96.89-19.11,172.89,24.89Z"/>
    <path class="cls-1" d="M1086.9,895.84c-28.55,42.11-59.18,131.77,88.43,233.22l99.33-74.67s.58-190.26-134-187.83c-21.59.39-41.65,11.41-53.77,29.28Z"/>
    <path class="cls-1" d="M1254.11,1154.61s1.25,52.97,95.88,79.31c12.34,3.43,23.44,10.32,32.09,19.77,13.14,14.36,29.48,39.99,41.81,84.92,24.11,87.89,19.56,72.44,19.56,72.44,0,0-36.44-58.67-99.56-66.67s-77.33-114.67-77.33-114.67l-12.44-75.11Z"/>
    <path class="cls-1" d="M1542.36,1119.42c.16.22,1.27,1.85,2.53,4.83l-2.53-4.83Z"/>
    <path class="cls-1" d="M1588.15,1277.77c-2.47,5.39-5.89,10.42-10.46,14.89-5.16,5.06-9.55,10.46-13.28,16.03-21.05,31.43-21.21,68.19-20.84,77.85.04,1.11.38,2.17.43,3.29.01.22-2.61-5.99-23.83-59.35-10.73-26.99-14.54-48.04-15.12-63.82-.63-17.35,5-34.45,15.39-48.65,15.16-20.72,22.8-38.34,26.21-52.71,4.86-20.42,1.14-34.26-1.76-41.05l27.19,51.7s2.89,5.09,6.56,13.32c3.48,20.38,7.15,49.3,9.51,88.5Z"/>
    <circle class="cls-2" cx="1352.67" cy="1291.5" r="24.67"/>
    <circle class="cls-2" cx="1540" cy="1266.83" r="21.78"/>
    <polygon class="cls-4" points="1154.22 1216.61 1154.22 1269.94 1220 1248.61 1154.22 1216.61"/>
    <polygon class="cls-4" points="1164.89 1301.06 1187.11 1343.28 1236.44 1288.61 1164.89 1301.06"/>
    <polygon class="cls-4" points="1208.44 1373.94 1251.56 1406.83 1260.78 1333.5 1208.44 1373.94"/>
    <path class="cls-4" d="M1099.11,940.17s9.33-74.22,78.22-29.33,51.56,160.89,51.56,160.89c0,0-43.11-209.78-129.78-131.56Z"/>
    <path class="cls-1" d="M1614.67,1511.28s-84.44-18.22-81.33,32,52,53.78,52,53.78c0,0,69.33-17.33,29.33-85.78Z"/>
    <path class="cls-1" d="M1317.78,1406.83s.89,33.33,18.67,51.56,177.33,138.67,177.33,138.67l13.33-28-209.33-162.22Z"/>
  </g>
  <g id="Capa_9" data-name="Capa 9">
    <path class="cls-4" d="M1081.78,1729.44s5.28-56.39,62.22-59.11,77.5,44.27,80,59.11h-142.22Z"/>
    <path class="cls-4" d="M620.31,1729.44s5.28-56.39,62.22-59.11,77.5,44.27,80,59.11h-142.22Z"/>
  </g>
</svg>